<svg xmlns="http://www.w3.org/2000/svg" viewBox="0 0 200 200" width="200" height="200">
  <defs>
    <radialGradient id="cookieBase" cx="35%" cy="30%" r="75%">
      <stop offset="0%" stop-color="#E3A45C"/>
      <stop offset="100%" stop-color="#B5743A"/>
    </radialGradient>
  </defs>
  <path fill="url(#cookieBase)" d="M100 10c5 0 8 6 13 7 6 1 12-4 17 0 5 4 2 11 6 15 4 4 12 2 15 7 3 5-2 11 0 16 2 5 10 6 11 12 1 6-6 10-6 16 0 6 7 10 6 16-1 6-9 7-11 12-2 5 1 12-3 16-4 4-11 2-15 6-4 4-2 11-7 15-5 4-11 1-16 3-5 2-7 9-13 10-6 1-10-6-16-6-6 0-10 7-16 6-6-1-8-8-13-10-5-2-12 1-16-3-4-4-3-11-7-15-4-4-11-2-15-6-4-4-1-11-3-16-2-5-9-6-11-12-1-6 6-10 6-16 0-6-7-10-6-16 1-6 9-7 11-12 2-5-1-12 3-16 4-4 11-2 15-6 4-4 2-11 7-15 5-4 12 1 17 0 5-1 8-7 13-7Z"/>
  <circle cx="70" cy="65" r="8" fill="#5C3A21"/>
  <circle cx="120" cy="55" r="7" fill="#5C3A21"/>
  <circle cx="140" cy="95" r="6" fill="#5C3A21"/>
  <circle cx="100" cy="110" r="9" fill="#5C3A21"/>
  <circle cx="60" cy="120" r="6" fill="#5C3A21"/>
  <circle cx="130" cy="140" r="7" fill="#5C3A21"/>
  <circle cx="80" cy="150" r="6" fill="#5C3A21"/>
</svg>
